<mxfile host="app.diagrams.net" modified="2024-01-12T19:09:36.231Z" agent="Mozilla/5.0 (Macintosh; Intel Mac OS X 10_15_7) AppleWebKit/537.36 (KHTML, like Gecko) Chrome/120.0.0.0 Safari/537.36" etag="dI0l3RoWzyb559f2JxmW" version="22.1.18" type="device">
  <diagram name="Page-1" id="NFp-MkugyyBvlnTe6vyy">
    <mxGraphModel dx="891" dy="456" grid="1" gridSize="10" guides="1" tooltips="1" connect="1" arrows="1" fold="1" page="1" pageScale="1" pageWidth="850" pageHeight="1100" math="0" shadow="0">
      <root>
        <mxCell id="0" />
        <mxCell id="1" parent="0" />
        <mxCell id="kuS2-4shr8BYsrbPpmEa-1" value="" style="verticalLabelPosition=bottom;verticalAlign=top;html=1;shape=mxgraph.basic.partConcEllipse;startAngle=0.25;endAngle=0.75;arcWidth=0.25;fillColor=#10739E;strokeColor=none;" vertex="1" parent="1">
          <mxGeometry x="150" y="200" width="120" height="120" as="geometry" />
        </mxCell>
        <mxCell id="kuS2-4shr8BYsrbPpmEa-2" value="" style="verticalLabelPosition=bottom;verticalAlign=top;html=1;shape=mxgraph.basic.partConcEllipse;startAngle=0.75;endAngle=0.25;arcWidth=0.25;fillColor=#F2931E;strokeColor=none;" vertex="1" parent="1">
          <mxGeometry x="255" y="200" width="120" height="120" as="geometry" />
        </mxCell>
        <mxCell id="kuS2-4shr8BYsrbPpmEa-3" value="" style="verticalLabelPosition=bottom;verticalAlign=top;html=1;shape=mxgraph.basic.partConcEllipse;startAngle=0.25;endAngle=0.75;arcWidth=0.25;fillColor=#AE4132;strokeColor=none;" vertex="1" parent="1">
          <mxGeometry x="360" y="200" width="120" height="120" as="geometry" />
        </mxCell>
        <mxCell id="kuS2-4shr8BYsrbPpmEa-4" value="" style="verticalLabelPosition=bottom;verticalAlign=top;html=1;shape=mxgraph.basic.partConcEllipse;startAngle=0.75;endAngle=0.25;arcWidth=0.25;fillColor=#23445D;strokeColor=none;" vertex="1" parent="1">
          <mxGeometry x="465" y="200" width="120" height="120" as="geometry" />
        </mxCell>
        <mxCell id="kuS2-4shr8BYsrbPpmEa-6" value="1" style="shape=ellipse;strokeWidth=6;strokeColor=#10739E;fontSize=15;html=1;whiteSpace=wrap;fontStyle=1;fontColor=#10739E;" vertex="1" parent="1">
          <mxGeometry x="185" y="235" width="50" height="50" as="geometry" />
        </mxCell>
        <mxCell id="kuS2-4shr8BYsrbPpmEa-7" value="2" style="shape=ellipse;strokeWidth=6;strokeColor=#F2931E;fontSize=15;html=1;whiteSpace=wrap;fontStyle=1;fontColor=#F2931E;" vertex="1" parent="1">
          <mxGeometry x="290" y="235" width="50" height="50" as="geometry" />
        </mxCell>
        <mxCell id="kuS2-4shr8BYsrbPpmEa-8" value="3" style="shape=ellipse;strokeWidth=6;strokeColor=#AE4132;fontSize=15;html=1;whiteSpace=wrap;fontStyle=1;fontColor=#AE4132;" vertex="1" parent="1">
          <mxGeometry x="395" y="235" width="50" height="50" as="geometry" />
        </mxCell>
        <mxCell id="kuS2-4shr8BYsrbPpmEa-9" value="4" style="shape=ellipse;strokeWidth=6;strokeColor=#23445D;fontSize=15;html=1;whiteSpace=wrap;fontStyle=1;fontColor=#23445D;" vertex="1" parent="1">
          <mxGeometry x="500" y="235" width="50" height="50" as="geometry" />
        </mxCell>
        <mxCell id="kuS2-4shr8BYsrbPpmEa-11" value="&lt;font style=&quot;&quot;&gt;&lt;font color=&quot;#10739e&quot;&gt;&lt;b&gt;Fundamental Programming&lt;br&gt;&lt;/b&gt;&lt;/font&gt;&lt;br&gt;&lt;div style=&quot;text-align: left;&quot;&gt;&lt;span style=&quot;font-size: 10px; background-color: initial;&quot;&gt;- Scratch Programming&lt;/span&gt;&lt;/div&gt;&lt;font style=&quot;font-size: 10px;&quot; size=&quot;1&quot;&gt;&lt;div style=&quot;text-align: left;&quot;&gt;&lt;span style=&quot;background-color: initial;&quot;&gt;- C Programming&lt;/span&gt;&lt;/div&gt;&lt;div style=&quot;text-align: left;&quot;&gt;&lt;span style=&quot;background-color: initial;&quot;&gt;- Basic Frontend Development&lt;/span&gt;&lt;/div&gt;&lt;/font&gt;&lt;/font&gt;" style="rounded=1;strokeColor=none;fillColor=#EEEEEE;align=center;arcSize=12;verticalAlign=top;whiteSpace=wrap;html=1;fontSize=12;spacing=8;" vertex="1" parent="1">
          <mxGeometry x="150" y="330" width="130" height="120" as="geometry" />
        </mxCell>
        <mxCell id="kuS2-4shr8BYsrbPpmEa-12" value="&lt;div style=&quot;&quot;&gt;&lt;b style=&quot;color: rgb(242, 147, 30); background-color: initial;&quot;&gt;Frontend Development&lt;/b&gt;&lt;/div&gt;&lt;div style=&quot;&quot;&gt;&lt;b style=&quot;color: rgb(242, 147, 30); background-color: initial;&quot;&gt;&lt;br&gt;&lt;/b&gt;&lt;/div&gt;&lt;font style=&quot;font-size: 10px&quot;&gt;&lt;div style=&quot;text-align: left;&quot;&gt;&lt;span style=&quot;background-color: initial;&quot;&gt;- Typescript&lt;/span&gt;&lt;/div&gt;&lt;div style=&quot;text-align: left;&quot;&gt;&lt;span style=&quot;background-color: initial;&quot;&gt;- React.js&lt;/span&gt;&lt;/div&gt;&lt;div style=&quot;text-align: left;&quot;&gt;&lt;span style=&quot;background-color: initial;&quot;&gt;- Vue.js&lt;/span&gt;&lt;/div&gt;&lt;div style=&quot;text-align: left;&quot;&gt;&lt;span style=&quot;background-color: initial;&quot;&gt;- Next.js&lt;/span&gt;&lt;/div&gt;&lt;br&gt;&lt;/font&gt;" style="rounded=1;strokeColor=none;fillColor=#EEEEEE;align=center;arcSize=12;verticalAlign=top;whiteSpace=wrap;html=1;fontSize=12;spacing=8;" vertex="1" parent="1">
          <mxGeometry x="255" y="70" width="120" height="120" as="geometry" />
        </mxCell>
        <mxCell id="kuS2-4shr8BYsrbPpmEa-13" value="&lt;font style=&quot;font-size: 10px;&quot;&gt;&lt;font style=&quot;font-size: 12px;&quot; color=&quot;#AE4132&quot;&gt;&lt;b&gt;Backend Development&lt;/b&gt;&lt;/font&gt;&lt;br&gt;&lt;br&gt;&lt;div style=&quot;text-align: left;&quot;&gt;&lt;span style=&quot;background-color: initial;&quot;&gt;- Java&lt;/span&gt;&lt;/div&gt;&lt;div style=&quot;text-align: left;&quot;&gt;&lt;span style=&quot;background-color: initial;&quot;&gt;- DSA&lt;/span&gt;&lt;/div&gt;&lt;div style=&quot;text-align: left;&quot;&gt;&lt;span style=&quot;background-color: initial;&quot;&gt;- JSP &amp;amp; Servlet&lt;/span&gt;&lt;/div&gt;&lt;div style=&quot;text-align: left;&quot;&gt;&lt;span style=&quot;background-color: initial;&quot;&gt;- Spring MVC&lt;/span&gt;&lt;/div&gt;&lt;/font&gt;" style="rounded=1;strokeColor=none;fillColor=#EEEEEE;align=center;arcSize=12;verticalAlign=top;whiteSpace=wrap;html=1;fontSize=12;spacing=8;" vertex="1" parent="1">
          <mxGeometry x="360" y="330" width="120" height="120" as="geometry" />
        </mxCell>
        <mxCell id="kuS2-4shr8BYsrbPpmEa-14" value="&lt;font style=&quot;font-size: 10px&quot;&gt;&lt;font style=&quot;font-size: 12px&quot; color=&quot;#23445D&quot;&gt;&lt;b&gt;Advanced Programming&lt;/b&gt;&lt;/font&gt;&lt;br&gt;&lt;br&gt;&lt;div style=&quot;text-align: left;&quot;&gt;&lt;span style=&quot;font-size: x-small; background-color: initial;&quot;&gt;- Python&lt;/span&gt;&lt;/div&gt;&lt;font size=&quot;1&quot;&gt;&lt;div style=&quot;text-align: left;&quot;&gt;&lt;span style=&quot;background-color: initial;&quot;&gt;- Machine learning&lt;/span&gt;&lt;/div&gt;&lt;div style=&quot;text-align: left;&quot;&gt;&lt;span style=&quot;background-color: initial;&quot;&gt;- Data analysist&lt;/span&gt;&lt;/div&gt;&lt;/font&gt;&lt;/font&gt;" style="rounded=1;strokeColor=none;fillColor=#EEEEEE;align=center;arcSize=12;verticalAlign=top;whiteSpace=wrap;html=1;fontSize=12;spacing=8;" vertex="1" parent="1">
          <mxGeometry x="465" y="70" width="120" height="120" as="geometry" />
        </mxCell>
        <mxCell id="kuS2-4shr8BYsrbPpmEa-16" value="" style="rounded=0;whiteSpace=wrap;html=1;fillColor=none;dashed=1;dashPattern=8 8;strokeColor=#ff0800;" vertex="1" parent="1">
          <mxGeometry x="135" y="210" width="155" height="250" as="geometry" />
        </mxCell>
        <mxCell id="kuS2-4shr8BYsrbPpmEa-17" value="&lt;b&gt;34 + 33&lt;/b&gt;" style="rounded=1;align=center;fillColor=#F1F2F4;strokeColor=none;html=1;whiteSpace=wrap;fontColor=#596780;fontSize=12;sketch=0;" vertex="1" parent="1">
          <mxGeometry x="658.75" y="190" width="92.5" height="33" as="geometry" />
        </mxCell>
        <mxCell id="kuS2-4shr8BYsrbPpmEa-18" value="" style="html=1;shadow=0;dashed=0;shape=mxgraph.atlassian.checkbox;fillColor=#008465;strokeColor=none;html=1;sketch=0;" vertex="1" parent="1">
          <mxGeometry x="590" y="294" width="14" height="14" as="geometry" />
        </mxCell>
        <mxCell id="kuS2-4shr8BYsrbPpmEa-19" value="" style="verticalLabelPosition=bottom;sketch=0;html=1;fillColor=#dae8fc;strokeColor=#6c8ebf;verticalAlign=top;pointerEvents=1;align=center;shape=mxgraph.cisco_safe.people_places_things_icons.icon2;" vertex="1" parent="1">
          <mxGeometry x="680" y="130" width="50" height="41" as="geometry" />
        </mxCell>
      </root>
    </mxGraphModel>
  </diagram>
</mxfile>
